<svg xmlns="http://www.w3.org/2000/svg" xmlns:xlink="http://www.w3.org/1999/xlink" width="580" height="525" xmlns:v="https://vecta.io/nano"><defs><filter id="A" width="126.9%" height="129.8%" x="-13.5%" y="-10.6%"><feOffset dy="10" in="SourceAlpha"/><feGaussianBlur stdDeviation="10"/><feColorMatrix values="0 0 0 0 0.311765745 0 0 0 0 0.336514196 0 0 0 0 0.386011096 0 0 0 0.03 0"/></filter><rect id="B" width="260" height="235" rx="4"/><rect id="C" width="260" height="235" rx="4"/><rect id="D" width="260" height="235" rx="4"/><ellipse id="E" cx="81.039" cy="81.034" rx="81.039" ry="81.034"/><ellipse id="F" cx="81.039" cy="81.034" rx="81.039" ry="81.034"/><mask id="G" width="162.078" height="162.069" x="0" y="0" fill="#fff"><use xlink:href="#E"/></mask><mask id="H" width="162.078" height="162.069" x="0" y="0" fill="#fff"><use xlink:href="#F"/></mask></defs><g fill="none" fill-rule="evenodd" transform="translate(20 10)"><use fill="#000" filter="url(#A)" xlink:href="#B"/><use fill="#fff" xlink:href="#B"/><path fill="#fafafa" stroke="#e5e9ea" d="M16.208 16.207h230.286v202.586H16.208z"/><path fill="#e5e9ea" d="M16.208 117.5h230.286v1H16.208zm0 18.993h230.286v1H16.208zm0 18.992h230.286v1H16.208zm0 18.992h230.286v1H16.208zm0-132.947h230.286v1H16.208zm0-18.992h230.286v1H16.208zm0 37.985h230.286v1H16.208zm0 18.992h230.286v1H16.208zm0 18.993h230.286v1H16.208zm0 94.962h230.286v1H16.208zm0 18.992h230.286v1H16.208z"/><path fill="#242d52" d="M22.286 117.5h31.065v45.647a5 5 0 01-5 5H27.286a5 5 0 01-5-5V117.5z"/><path fill="#f3603c" d="M22.286 117.5h31.065v32.985a5 5 0 01-5 5H27.286a5 5 0 01-5-5V117.5zM69.558 117.234h31.065V82.658a5 5 0 00-5-5H74.558a5 5 0 00-5 5v34.576z"/><path fill="#242d52" d="M69.558 117.234h31.065v52a5 5 0 0 1-5 5H74.558a5 5 0 0 1-5-5v-52zm92.52.266h31.065V46.193a5 5 0 0 0-5-5h-21.065a5 5 0 0 0-5 5V117.5z"/><path fill="#f3603c" d="M162.078 117.5h31.065V65.27a5 5 0 00-5-5h-21.065a5 5 0 00-5 5v52.23z"/><path fill="#242d52" d="M209.351 117.5h31.065v58.477a5 5 0 01-5 5H214.35a5 5 0 01-5-5V117.5z"/><path d="M209.35 117.5h31.065v45.782a5 5 0 0 1-5 5H214.35a5 5 0 0 1-5-5V117.5zm-93.87 0h31.065v90.216a5 5 0 0 1-5 5H120.48a5 5 0 0 1-5-5V117.5z" fill="#f3603c"/><path fill="#242d52" d="M115.481 117.5h31.065v33.086a5 5 0 01-5 5H120.48a5 5 0 01-5-5V117.5z"/><g transform="translate(280)"><use fill="#000" filter="url(#A)" xlink:href="#C"/><use fill="#fff" xlink:href="#C"/><g transform="translate(49.299 36.466)"><ellipse cx="81.039" cy="81.034" stroke="#fff" stroke-width="40" rx="61.039" ry="61.034"/><g stroke-width="80"><use stroke="#f3603c" stroke-dasharray="502" mask="url(#G)" xlink:href="#E"/><use stroke="#242d52" stroke-dasharray="340" mask="url(#H)" xlink:href="#F"/></g></g></g><g transform="translate(140 250)"><use fill="#000" filter="url(#A)" xlink:href="#D"/><use fill="#fff" xlink:href="#D"/><rect width="106.026" height="78.333" fill="#f3603c" rx="4" x="16.208" y="140.46"/><path fill="#fff" fill-rule="nonzero" d="M39.252 199.873v-3.907h3.897v-1.78h-3.897v-3.908h-1.78v3.907h-3.908v1.78h3.908v3.908h1.78zm12.264 2.038v-14.106h-2.158l-3.433 2.997v2.374l3.314-2.977v11.71h2.276zm6.437.198a1.35 1.35 0 0 0 .984-.406c.274-.27.4-.597.4-.98s-.136-.7-.4-.983c-.257-.267-.613-.415-.984-.4-.376 0-.702.136-.98.4-.27.256-.42.613-.415.984s.14.7.416.974.603.4.98.4zm8.584-.01c1.45 0 2.623-.444 3.517-1.33s1.34-2.053 1.34-3.497c0-1.438-.438-2.544-1.316-3.32s-2.2-1.16-3.966-1.16h-1.544l.307-2.918h5.876v-2.058h-7.863l-.732 6.914h3.63c2.2 0 3.314.874 3.314 2.622 0 .79-.232 1.43-.697 1.914s-1.103.727-1.915.727c-.705 0-1.307-.205-1.805-.613s-.747-1.023-.747-1.84a5.1 5.1 0 0 1 .07-.712l-2.286.138-.05.712c0 .917.228 1.716.683 2.4.435.665 1.05 1.193 1.77 1.523s1.53.5 2.414.5zm9.207-8.3a2.96 2.96 0 0 0 2.186-.91 3.04 3.04 0 0 0 .9-2.205 3 3 0 0 0-.9-2.187 2.96 2.96 0 0 0-2.186-.91 2.98 2.98 0 0 0-3.096 3.097 3.01 3.01 0 0 0 .905 2.205c.603.607 1.334.9 2.19.9zm1.088 8.112l7.46-14.136h-1.98l-7.438 14.136h1.958zm-1.088-9.684a1.49 1.49 0 0 1-1.088-.45 1.48 1.48 0 0 1-.455-1.093 1.45 1.45 0 0 1 .455-1.084 1.51 1.51 0 0 1 1.088-.44 1.48 1.48 0 0 1 1.088.445c.297.297.445.656.445 1.08s-.146.793-.44 1.093-.658.45-1.093.45zm7.785 9.842a2.93 2.93 0 0 0 2.172-.91c.584-.576.907-1.366.895-2.186a2.99 2.99 0 0 0-.9-2.191c-.566-.59-1.35-.917-2.167-.905-.857 0-1.59.3-2.196.905-.594.573-.923 1.366-.9 2.19 0 .857.302 1.588.905 2.19a3 3 0 0 0 2.201.905zm0-1.563c-.435 0-.8-.15-1.098-.45-.3-.285-.45-.676-.445-1.083 0-.435.15-.8.445-1.098a1.49 1.49 0 0 1 1.098-.445c.416 0 .777.15 1.084.455s.46.666.46 1.088a1.47 1.47 0 0 1-.455 1.083c-.304.3-.666.45-1.09.45z"/><rect width="106.026" height="78.333" fill="#fafafa" rx="4" x="137.766" y="140.46"/><path fill="#1e272e" fill-rule="nonzero" d="M159.87 202.1c.936 0 1.777-.168 2.522-.505.722-.323 1.338-.844 1.776-1.503s.658-1.42.658-2.285c0-.85-.218-1.593-.653-2.226a4.12 4.12 0 0 0-1.77-1.444c.527-.3.942-.714 1.246-1.212a3.14 3.14 0 0 0 .455-1.667 3.29 3.29 0 0 0-1.202-2.626c-.8-.682-1.812-1.024-3.032-1.024-1.24 0-2.262.34-3.067 1.02s-1.207 1.555-1.207 2.63c0 .614.155 1.17.465 1.667s.736.902 1.276 1.212c-.758.323-1.353.8-1.785 1.434s-.648 1.38-.648 2.236c0 .864.22 1.625.658 2.285s1.056 1.18 1.78 1.498c.75.34 1.59.5 2.528.5zm0-8.665c-.607 0-1.118-.197-1.533-.59-.408-.374-.635-.906-.624-1.46a1.87 1.87 0 0 1 .624-1.43c.415-.385.926-.578 1.533-.578.6 0 1.108.193 1.523.58a1.87 1.87 0 0 1 .624 1.429 1.92 1.92 0 0 1-.629 1.454 2.13 2.13 0 0 1-1.518.594zm0 6.607c-.772 0-1.41-.227-1.92-.682s-.76-1.062-.76-1.82c0-.745.254-1.342.762-1.8s1.147-.673 1.92-.673c.758 0 1.39.224 1.9.672s.76 1.046.76 1.8c0 .753-.254 1.358-.762 1.816s-1.14.687-1.9.687zm11.076 2.06c.936 0 1.777-.168 2.522-.505.722-.323 1.338-.844 1.776-1.503s.658-1.42.658-2.285c0-.85-.218-1.593-.653-2.226a4.12 4.12 0 0 0-1.77-1.444c.527-.3.942-.714 1.246-1.212a3.14 3.14 0 0 0 .455-1.667 3.29 3.29 0 0 0-1.202-2.626c-.8-.682-1.812-1.024-3.032-1.024-1.24 0-2.262.34-3.067 1.02s-1.207 1.555-1.207 2.63c0 .614.155 1.17.465 1.667s.736.902 1.276 1.212c-.758.323-1.353.8-1.785 1.434s-.648 1.38-.648 2.236c0 .864.22 1.625.658 2.285s1.056 1.18 1.78 1.498c.75.34 1.59.5 2.528.5zm0-8.665c-.607 0-1.118-.197-1.534-.59-.408-.374-.635-.906-.623-1.46 0-.567.208-1.044.623-1.43s.927-.578 1.534-.578c.6 0 1.108.193 1.523.58a1.87 1.87 0 0 1 .623 1.429 1.92 1.92 0 0 1-.628 1.454 2.13 2.13 0 0 1-1.518.594zm0 6.607c-.772 0-1.412-.227-1.92-.682s-.76-1.062-.76-1.82c0-.745.254-1.342.762-1.8s1.147-.673 1.92-.673c.758 0 1.39.224 1.9.672s.76 1.046.76 1.8c0 .753-.253 1.358-.76 1.816s-1.142.687-1.9.687zm8.435 2.068a1.35 1.35 0 0 0 .985-.406 1.33 1.33 0 0 0 .41-.98 1.34 1.34 0 0 0-.41-.983c-.258-.267-.614-.415-.985-.4-.375 0-.702.136-.98.4-.27.256-.42.613-.415.984a1.32 1.32 0 0 0 .415.974c.277.274.604.4.98.4zm13.313-.198v-2.058h-6.5l4.146-4.293c.666-.692 1.154-1.342 1.464-1.948s.465-1.27.465-1.99c0-1.253-.42-2.238-1.257-2.957s-1.915-1.08-3.234-1.08c-1.405 0-2.52.393-3.344 1.178s-1.237 1.91-1.237 3.373v.79l2.266.218v-1.04c0-.917.207-1.584.623-2.003s.983-.628 1.7-.628c.686 0 1.23.2 1.633.57s.603.908.603 1.587c0 .877-.47 1.8-1.414 2.77l-5.64 5.787v1.72h9.735zm9.702 0v-2.76h1.94v-2.048h-1.94v-9.298h-3.47l-5.43 9.29v2.057h6.628v2.76h2.275zm-2.275-4.808h-4.412l4.412-7.834v7.834zm8.13-3.294a2.96 2.96 0 0 0 2.186-.91 3.04 3.04 0 0 0 .9-2.205 3 3 0 0 0-.9-2.187 2.96 2.96 0 0 0-2.186-.91c-.85 0-1.58.304-2.187.9a2.98 2.98 0 0 0-.91 2.187 3.01 3.01 0 0 0 .905 2.205c.604.607 1.334.9 2.192.9zm1.088 8.112l7.46-14.136h-1.98l-7.44 14.136h1.96zm-1.088-9.684c-.422 0-.785-.15-1.09-.45a1.48 1.48 0 0 1-.455-1.093 1.45 1.45 0 0 1 .455-1.084 1.51 1.51 0 0 1 1.089-.44c.428 0 .79.15 1.088.445s.445.656.445 1.08-.147.793-.44 1.093-.658.45-1.093.45zm7.785 9.842a2.93 2.93 0 0 0 2.171-.91c.584-.576.908-1.366.896-2.186a2.99 2.99 0 0 0-.9-2.191c-.566-.59-1.35-.917-2.167-.905-.857 0-1.6.3-2.196.905-.594.573-.923 1.366-.9 2.19a2.98 2.98 0 0 0 .905 2.191c.603.603 1.337.905 2.2.905zm0-1.563c-.435 0-.8-.15-1.098-.45-.3-.285-.45-.676-.445-1.083a1.49 1.49 0 0 1 1.543-1.543c.415 0 .776.15 1.083.455s.46.666.46 1.088a1.47 1.47 0 0 1-.455 1.083 1.49 1.49 0 0 1-1.088.45z"/><rect width="227.584" height="108.046" fill="#fafafa" rx="4" x="16.208" y="16.207"/><path fill="#343a40" fill-rule="nonzero" d="M44.994 101.02c1.998 0 3.79-.36 5.38-1.076 1.6-.732 2.853-1.8 3.788-3.208s1.404-3.032 1.404-4.875c0-1.815-.465-3.397-1.393-4.748s-2.188-2.377-3.778-3.08c1.126-.662 2.012-1.524 2.66-2.586s.97-2.247.97-3.556c0-2.28-.855-4.146-2.564-5.602s-3.865-2.185-6.468-2.185c-2.645 0-4.826.725-6.542 2.174s-2.575 3.32-2.575 5.613c0 1.31.33 2.494.992 3.556s1.568 1.924 2.722 2.585c-1.618.7-2.888 1.7-3.8 3.06s-1.38 2.94-1.38 4.77c0 1.842.467 3.467 1.403 4.874s2.202 2.473 3.8 3.197 3.394 1.087 5.392 1.087zm0-18.486c-1.295 0-2.385-.42-3.27-1.256s-1.33-1.874-1.33-3.112a3.99 3.99 0 0 1 1.33-3.05c.886-.823 1.976-1.234 3.27-1.234 1.28 0 2.364.41 3.25 1.234a3.99 3.99 0 0 1 1.33 3.05c0 1.224-.446 2.258-1.34 3.102s-1.973 1.266-3.24 1.266zm0 14.097c-1.646 0-3.01-.486-4.094-1.457s-1.625-2.265-1.625-3.882c0-1.6.54-2.863 1.625-3.82s2.448-1.435 4.094-1.435c1.618 0 2.968.478 4.052 1.435s1.625 2.23 1.625 3.82c0 1.603-.542 2.894-1.625 3.872s-2.434 1.467-4.052 1.467zm21.737 3.988l9.73-12.873c1.772-2.39 2.66-4.818 2.66-7.28 0-1.97-.48-3.746-1.435-5.33-.935-1.562-2.282-2.836-3.894-3.682-1.64-.872-3.458-1.308-5.455-1.308-1.956 0-3.753.432-5.392 1.297s-2.948 2.104-3.926 3.714-1.46 3.423-1.445 5.434c.014 1.97.482 3.718 1.403 5.244s2.107 2.684 3.556 3.472c1.436.785 3.048 1.19 4.685 1.182a9.31 9.31 0 0 0 1.9-.19l-8.02 10.32h5.635zm1.73-13.76c-1.8 0-3.274-.565-4.42-1.698s-1.727-2.62-1.74-4.463c-.014-1.815.563-3.29 1.73-4.42s2.645-1.7 4.432-1.7c1.815 0 3.278.55 4.4 1.646s1.667 2.575 1.667 4.432c0 1.758-.566 3.232-1.7 4.42s-2.585 1.784-4.358 1.784zm17.664 14.182a2.88 2.88 0 0 0 2.1-.865 2.83 2.83 0 0 0 .876-2.09c0-.815-.292-1.515-.876-2.1-.55-.57-1.31-.886-2.1-.875-.802 0-1.498.292-2.1.876s-.885 1.284-.885 2.1c0 .8.295 1.494.886 2.078s1.287.876 2.1.876zm14.224-.422l14.16-26.23v-3.863H93.597v4.37h15.448L94.82 100.617h5.53zm34.378 0V94.73h4.137v-4.368h-4.137V70.525h-7.407L115.734 90.34v4.4h14.14v5.887h4.853zm-4.853-10.256h-9.413l9.413-16.713v16.713zm17.094-7.027a6.31 6.31 0 0 0 4.664-1.942c1.28-1.308 1.92-2.877 1.92-4.706a6.39 6.39 0 0 0-1.92-4.663 6.31 6.31 0 0 0-4.664-1.942c-1.815 0-3.37.647-4.664 1.942s-1.942 2.85-1.942 4.663c0 1.843.644 3.412 1.93 4.706s2.846 1.942 4.675 1.942zm2.32 17.304l15.913-30.156h-4.22l-15.87 30.156h4.178zm-2.32-20.66c-.9 0-1.675-.32-2.322-.96-.634-.608-.985-1.454-.97-2.332 0-.914.323-1.684.97-2.3a3.22 3.22 0 0 1 2.322-.94c.914 0 1.688.317 2.32.95a3.13 3.13 0 0 1 .95 2.3c0 .915-.313 1.692-.94 2.332s-1.403.96-2.33.96zm16.61 20.998a6.25 6.25 0 0 0 4.632-1.942 6.41 6.41 0 0 0 1.91-4.663c0-1.83-.64-3.387-1.92-4.675s-2.822-1.93-4.622-1.93a6.4 6.4 0 0 0-4.686 1.93 6.35 6.35 0 0 0-1.941 4.675 6.37 6.37 0 0 0 1.93 4.674 6.39 6.39 0 0 0 4.697 1.93zm0-3.335c-.93 0-1.7-.32-2.343-.96a3.17 3.17 0 0 1-.95-2.31c0-.93.317-1.7.95-2.343s1.414-.95 2.343-.95c.886 0 1.656.324 2.3.97s.982 1.42.982 2.322a3.13 3.13 0 0 1-.971 2.31c-.647.64-1.42.96-2.32.96z"/></g></g></svg>