<svg xmlns="http://www.w3.org/2000/svg" width="146" height="24" fill-rule="evenodd" xmlns:v="https://vecta.io/nano"><path fill="#fff" fill-rule="nonzero" d="M40.014 16.81V8.553c0-1.577.366-2.82 1.098-3.73s1.65-1.365 2.75-1.365c2.158 0 3.237 1.577 3.237 4.73v8.62h3.782V7.23c0-2.415-.5-4.22-1.503-5.417S46.945.017 45.084.017c-1.222 0-2.34.234-3.352.703a6.833 6.833 0 0 0-2.56 2.043h-.066c-.98-1.83-2.62-2.746-4.922-2.746-.97 0-1.902.217-2.8.653a6.976 6.976 0 0 0-2.353 1.878h-.05V.265H25.2v16.527h3.782v-8.24c0-1.577.372-2.82 1.115-3.73s1.693-1.365 2.85-1.365c2.2 0 3.286 1.577 3.286 4.73v8.62h3.782zm21.1.248c2.246 0 3.997-.827 5.252-2.482h.05v2.217h3.616V.265H66.25V2.25h-.066C64.93.76 63.23.017 61.082.017a7.76 7.76 0 0 0-5.681 2.415c-.705.75-1.26 1.66-1.668 2.73a9.589 9.589 0 0 0-.611 3.44c0 1.258.203 2.416.6 3.475s.964 1.952 1.67 2.68a7.348 7.348 0 0 0 2.535 1.696 8.325 8.325 0 0 0 3.18.604zm.595-3.44c-1.4 0-2.538-.466-3.42-1.398s-1.32-2.132-1.32-3.6c0-1.555.454-2.804 1.362-3.747s2.04-1.414 3.394-1.414c1.343 0 2.458.493 3.345 1.48s1.33 2.215 1.33 3.68-.455 2.667-1.363 3.6a4.47 4.47 0 0 1-3.328 1.398zm27.112 3.193V7.064c0-2.393-.536-4.166-1.6-5.32S84.655.017 82.762.017a7.373 7.373 0 0 0-3.056.645 6.958 6.958 0 0 0-2.477 1.87h-.05V.264h-3.782V16.79h3.782V8.487c0-1.588.388-2.823 1.164-3.706s1.814-1.323 3.113-1.323c.595 0 1.104.077 1.528.23a2.81 2.81 0 0 1 1.115.753c.32.348.556.82.7 1.415s.23 1.323.23 2.183v8.77h3.782zm10.218.248c2.246 0 3.996-.827 5.252-2.482h.05v2.217h3.616V.265h-3.782V2.25h-.066C102.855.76 101.154.017 99.007.017a7.76 7.76 0 0 0-5.682 2.415c-.704.75-1.26 1.66-1.668 2.73a9.589 9.589 0 0 0-.61 3.44c0 1.258.203 2.416.6 3.475s.964 1.952 1.668 2.68a7.348 7.348 0 0 0 2.536 1.696 8.325 8.325 0 0 0 3.179.604zm.594-3.44c-1.398 0-2.538-.466-3.418-1.398s-1.322-2.132-1.322-3.6c0-1.555.455-2.804 1.363-3.747s2.04-1.414 3.394-1.414a4.3 4.3 0 0 1 3.344 1.48c.886.988 1.33 2.215 1.33 3.68s-.455 2.667-1.363 3.6-2.018 1.398-3.328 1.398zm19.07 10.125c1.2 0 2.274-.14 3.22-.422s1.743-.673 2.387-1.175a6.385 6.385 0 0 0 1.602-1.844 8.14 8.14 0 0 0 .916-2.383c.188-.86.28-1.803.28-2.83V.265h-3.782v1.737h-.066a7.059 7.059 0 0 0-2.353-1.49A7.62 7.62 0 0 0 118.142 0c-1.508 0-2.862.358-4.062 1.075s-2.134 1.713-2.8 2.987-1 2.705-1 4.293c0 1.6.35 3.038 1.05 4.285a7.22 7.22 0 0 0 2.882 2.87c1.222.667 2.598 1 4.13 1 2.047 0 3.716-.673 5.004-2.018h.066v1.753c0 1.17-.43 2.14-1.288 2.912s-2.07 1.158-3.634 1.158c-1.068 0-2.006-.132-2.816-.397s-1.742-.678-2.8-1.24l-.892 3.34c.925.552 1.966.976 3.122 1.274s2.356.447 3.6.447zm.132-10.72c-1.365 0-2.49-.434-3.377-1.3s-1.33-2.026-1.33-3.482c0-1.4.435-2.542 1.305-3.425s2.004-1.323 3.402-1.323c1.332 0 2.442.435 3.328 1.307s1.33 2.002 1.33 3.39c0 1.4-.433 2.556-1.297 3.466s-1.985 1.365-3.36 1.365zm19.086 4.036c1.542 0 2.9-.28 4.07-.844s2.133-1.323 2.882-2.283l-2.642-2.266c-1.035 1.3-2.406 1.952-4.113 1.952-1.2 0-2.237-.337-3.08-1s-1.384-1.593-1.627-2.762h12.024c.066-.397.1-.9.1-1.506 0-1.6-.325-3.027-.975-4.285a7.198 7.198 0 0 0-2.807-2.961c-1.222-.717-2.632-1.075-4.228-1.075a8.191 8.191 0 0 0-3.188.62c-1 .414-1.844 1-2.56 1.73s-1.277 1.638-1.684 2.696-.61 2.212-.61 3.458c0 1.688.37 3.185 1.106 4.492s1.746 2.308 3.023 3.003 2.714 1.042 4.3 1.042zm3.815-10.274h-8.257c.264-1.06.776-1.878 1.535-2.457s1.663-.868 2.71-.868c1.057 0 1.93.298 2.618.893s1.153 1.406 1.395 2.432z"/><g fill="#f3603c"><path d="M2.786 10.286c1.538 0 2.785 1.28 2.785 2.857S4.324 16 2.786 16 0 14.72 0 13.143s1.247-2.857 2.786-2.857zM2.786 0C4.324 0 5.57 1.28 5.57 2.857S4.323 5.714 2.785 5.714 0 4.435 0 2.857 1.247 0 2.786 0zm10.028 0c1.54 0 2.786 1.28 2.786 2.857s-1.247 2.857-2.786 2.857-2.785-1.28-2.785-2.857S11.276 0 12.814 0z"/><ellipse cx="12.814" cy="13.257" opacity=".5" rx="2.786" ry="2.857"/></g></svg>